<svg xmlns="http://www.w3.org/2000/svg" width="15" height="15" viewBox="0 0 15 15">
    <path fill="#2E3C40" fill-rule="nonzero" d="M6.833 10.835a.937.937 0 0 0 1.331 0l6.56-4.74a.937.937 0 0 0 0-1.321L8.164.277a.937.937 0 0 0-1.33 0L.273 4.774a.937.937 0 0 0 0 1.32l6.56 4.741zM1.267 5.102L7.171 1.27a.469.469 0 0 1 .656 0l5.904 3.832c.18.185.18.48 0 .665L7.827 9.842a.45.45 0 0 1-.656 0L1.267 5.767a.478.478 0 0 1 0-.665zm6.56 6.754a.469.469 0 0 1-.656 0L.133 6.966a.937.937 0 0 0 .14 1.143l6.56 4.74a.937.937 0 0 0 1.331 0l6.56-4.74a.937.937 0 0 0 .15-1.134l-7.047 4.881zm0 1.874a.469.469 0 0 1-.656 0L.133 8.84a.937.937 0 0 0 .14 1.143l6.56 4.74a.937.937 0 0 0 1.331 0l6.56-4.74a.937.937 0 0 0 .15-1.134l-7.047 4.88z"/>
</svg>
